<svg xmlns="http://www.w3.org/2000/svg" width="603.442" height="296.804" viewBox="0 0 603.442 296.804"><g data-name="profile"><g data-name="グループ化 20" fill="#fff"><g data-name="グループ化 19"><g data-name="グループ化 17"><path data-name="パス 93" d="M34.494 80.2v7.214H24.065l-3.409 3.607v47.314h-6.818V91.021l-3.409-3.607H0V80.2z"/><path data-name="パス 94" d="M82.825 80.2v58.347h-6.819v-25.46l-3.409-3.607H58.559l-3.008 3.183v25.885h-7.22V80.2h6.819v18.247l3.409 3.607h13.837l3.409-3.607V80.2z"/><path data-name="パス 95" d="M104.886 91.021v7.214l3.409 3.607h24.065v7.214h-24.065l-3.409 3.607V127.3l3.409 3.607h24.065v7.214h-27.474l-6.819-7.212V87.414l6.819-7.214h27.475v7.214h-24.066z"/><path data-name="パス 96" d="M166.854 91.021v7.214l3.409 3.607h24.065v7.214h-24.065l-3.409 3.607V127.3l3.409 3.607h24.065v7.214h-27.474l-6.819-7.214V87.414l6.819-7.214h27.475v7.214h-24.066z"/><path data-name="パス 97" d="M236.845 94.628v-3.607l-3.409-3.607h-13.838l-3.409 3.607v7.214l3.409 3.607h17.247l6.819 7.214v21.854l-6.819 7.214h-20.656l-6.819-7.215v-7.214h6.819v3.605l3.409 3.607h13.838l3.409-3.607v-14.426l-3.409-3.607h-17.247l-6.819-7.426V87.414l6.819-7.214h20.656l6.819 7.214v7.214z"/><path data-name="パス 98" d="M286.58 94.628v-3.607l-3.409-3.607h-13.838l-3.409 3.607v7.214l3.409 3.607h17.247l6.819 7.214v21.854l-6.819 7.214h-20.656l-6.819-7.214v-7.214h6.819v3.604l3.409 3.607h13.838l3.409-3.607v-14.426l-3.409-3.607h-17.247l-6.819-7.214V87.414l6.819-7.214h20.656l6.819 7.214v7.214z"/><path data-name="パス 99" d="M315.058 91.021v7.214l3.409 3.607h24.065v7.214h-24.065l-3.409 3.607V127.3l3.409 3.607h24.065v7.214h-27.474l-6.819-7.214V87.414l6.819-7.214h27.475v7.214h-24.066z"/><path data-name="パス 100" d="M392.467 79.988v58.347h-6.819l-20.655-43.707v43.707h-6.819V79.988h6.819l20.656 43.707V79.988z"/><path data-name="パス 101" d="M442.805 87.414v7.214h-6.819v-3.607l-3.409-3.607h-13.838l-3.409 3.607v36.493l3.409 3.607h13.838l3.409-3.607v-3.819h6.819v7.214l-6.819 7.214H415.13l-6.819-7.214V87.414l6.819-7.214h20.656l6.819 7.214z"/><path data-name="パス 102" d="M464.665 91.021v7.214l3.409 3.607h24.065v7.214h-24.065l-3.409 3.607V127.3l3.409 3.607h24.065v7.214h-27.474l-6.819-7.214V87.414l6.819-7.214h27.475v7.214h-24.066z"/></g><g data-name="グループ化 18"><path data-name="パス 103" d="M554.107 87.414v43.707l-6.819 7.214h-20.655l-6.819-7.214V87.414l6.819-7.214h20.656zm-10.428 43.707l3.409-3.607V91.021l-3.409-3.607h-13.838l-3.409 3.607v36.493l3.409 3.607z"/><path data-name="パス 104" d="M575.767 91.021v7.214l3.409 3.607h20.656v7.214h-20.656l-3.409 3.607v25.46h-6.819V79.988h34.494v7.214h-24.066z"/></g><path data-name="パス 105" d="M49.134 0h6.819L66.18 21.854 76.408 0h7.019L69.59 29.067l13.837 29.068h-7.019L66.18 36.281 55.953 58.135h-6.819l13.637-29.068z"/><path data-name="パス 106" d="M107.292 0h20.656v7.426H117.72l-3.61 3.607v47.1h-6.819v-47.1l-3.409-3.607H93.655V0z"/><path data-name="パス 107" d="M1.003 7.426v43.495l6.819 7.214h24.065v-7.214H11.231l-3.409-3.609V32.674l3.409-3.607h24.065V7.426L28.478.212H7.822zm10.228 14.427l-3.409-3.607v-7.213l3.409-3.607h13.637l3.409 3.607v7.214l-3.409 3.607z"/><path data-name="パス 108" d="M244.466 0h20.656l6.819 7.426v10.821h-6.819v-7.214l-3.409-3.607h-13.838l-3.409 3.607v36.281l3.409 3.607h13.838l3.409-3.607V40.1h6.819v10.821l-6.819 7.214h-20.656l-6.819-7.214V7.426z"/><path data-name="パス 109" d="M299.415 0h20.456v7.426h-10.229l-3.409 3.607v47.1h-6.819v-47.1l-3.409-3.607h-10.428V0z"/><path data-name="パス 110" d="M148.404 0h20.656l6.819 7.426v10.821h-6.819v-7.214l-3.409-3.607h-13.638l-3.61 3.607v47.1h-6.818V0z"/><path data-name="パス 111" d="M186.307 29.067v21.854l6.819 7.214h27.475V7.426L213.782.212h-24.066v7.214h20.656l3.409 3.607v7.214l-3.409 3.607h-17.046zm10.228 21.854l-3.409-3.609V32.674l3.409-3.607h13.637l3.409 3.607v14.428l-3.409 3.61z"/></g><path data-name="線 3" stroke="#fff" stroke-miterlimit="10" stroke-width="1.5" d="M460.453 267.758H1.003"/></g></g><g data-name="グループ化 26" fill="#fff"><path data-name="パス 160" d="M374.38 223.447c.472-1.612 1.628-2.104 3.208-2.007a10.548 10.548 0 0 0 3.689.027c.727-2.656.403-5.497.853-8.136 2.54-2.58 4.04-2.315 5.414.895a13.975 13.975 0 0 0-.447 6.368 2.785 2.785 0 0 0 .52 1.72c1.15 1.417 1.048 1.967-.165 3.388-.152.178-.308.349-.45.534a.731.731 0 0 0-.071.214c-.033.47.252.7.796.92a28.445 28.445 0 0 1 8.2-3.937c-.253-2.372.851-4.404 1.49-6.523a18.001 18.001 0 0 1 4.147-7.231c1.981-2.08 4.065-4.115 7.069-4.619 3.154-.53 6.31-.844 8.968 1.566.741.676 1.719.939 2.444 1.724 2.331 2.509 3.084 5.7 3.946 8.818a13.277 13.277 0 0 1 .74 4.347 17.988 17.988 0 0 1-4.946 11.286 3.447 3.447 0 0 1-3.416 1.017c-.89-.18-1.708-.427-1.793-1.5a1.934 1.934 0 0 1 1.168-2.29c.507-.191.996-.43 1.44-.632a17.13 17.13 0 0 0 2.4-8.475 18.202 18.202 0 0 0-2.709-9.002c-.7-1.192-2.39-1.955-5.376-2.79a7.804 7.804 0 0 0-.382 4.487c1.157 5.442-.354 10.28-3.051 14.903-.278.474-.576.93-.83 1.414-1.183 2.25-2.873 3.667-5.665 3.366a21.568 21.568 0 0 0-1.974 4.936 18.524 18.524 0 0 1-2.61 5.66c-2.076 2.65-4.552 3.004-7.318 1.19a10.338 10.338 0 0 1-3.66-4.706c-.61-1.333-1.153-2.688-1.78-4.165-.888.503-1.589.947-2.336 1.312-1.67.816-2.646.262-2.802-1.6a3.46 3.46 0 0 0-.385-1.559 16.218 16.218 0 0 1 2.945-2.776 2.251 2.251 0 0 0 .895-2.836 18.156 18.156 0 0 1-.614-2.683c-2.005-.225-3.968.649-5.927.132a4.554 4.554 0 0 1-1.624-2.757zm18.478 18.017c.686-.867 1.165-1.382 1.542-1.963 1.542-2.38 2.097-5.176 3.212-7.738a1.6 1.6 0 0 0-.228-1.569c-1.021-1.375-1.092-3.017-1.285-4.773a49.857 49.857 0 0 0-7.848 7.263 12.577 12.577 0 0 0 4.607 8.776zm8.733-14.017a1.6 1.6 0 0 0 2.063-.825c2.849-4.538 3.429-9.487 2.624-14.669-.01-.056-.12-.096-.18-.143-3.768 2.622-7.187 9.705-4.507 15.634z"/><path data-name="パス 161" d="M128.285 228.995c-1.6.866-3.403.09-5.125.298-1.902.23-3.072 1.818-4.787 1.913-1.616 2.105-2.32 4.57-3.79 6.585a33.192 33.192 0 0 0-2.575 4.1c-1.09 2.08-1.166 4.31-1.536 6.5a17.513 17.513 0 0 1-.665 3.892 3.301 3.301 0 0 0-.01 2.306 3.986 3.986 0 0 1 .115 1.851 11.234 11.234 0 0 0 1.225 5.815c.565 1.322.715 2.858 2.072 3.777a14.555 14.555 0 0 0 5.732 2.473A19.485 19.485 0 0 0 129.854 267c1.464-.615 2.403-1.962 3.668-2.865 2.518-1.797 4.488-4.253 7.186-5.747-2.959-8.933-.243-16.08 5.817-22.253.656-.03 1.042-.053 1.426-.064.312-.008.62.001.948-.001a5.387 5.387 0 0 0 .54-.426c.65-.664 1.167-1.584 1.944-1.965a9.535 9.535 0 0 1 5.691-.559c1.687.27 2.725 1.744 3.358 3.31a18.413 18.413 0 0 1 1.519 9.974 29.171 29.171 0 0 1-3.785 11.06 10.97 10.97 0 0 1-1.834 2.63 9.704 9.704 0 0 1-10.264 2.124c-1.372-.463-2.85-.757-3.78-2.117a19.424 19.424 0 0 0-2.642 2.78 22.432 22.432 0 0 1-6.306 6.134c-4.248 3.012-9.054 4.609-14.294 3.769-3.324-.534-6.583-1.47-9.058-4.188a13.583 13.583 0 0 1-2.693-3.943 26.2 26.2 0 0 1-1.777-5.275 30.914 30.914 0 0 1-.245-8.425c.283-3.135 1.575-5.917 2.328-8.877.486-1.89 1.87-3.379 2.667-5.144.96-2.126 2.628-3.853 3.614-5.94 1.531-3.242 4.405-4.714 7.408-5.972a7.173 7.173 0 0 1 6.074.627c1.341.668 1.465 1.909.92 3.347zm29.412 19.632a14.537 14.537 0 0 1-5.774-2.11c-1.736-1.231-1.93-3.451-3.506-4.688-5.123 4.188-5.603 11.979-1.914 16.174 1.197.084 2.587.29 3.971.27a4.137 4.137 0 0 0 3.705-2 44.12 44.12 0 0 0 3.522-7.646zm-4.65-8.059c.531 3.066 1.871 4.952 5.32 4.987a20.648 20.648 0 0 0-.534-6.466 8.294 8.294 0 0 0-3.057-1.519c-1.082.842-1.21 2.069-1.723 3z"/><path data-name="パス 162" d="M287.844 289.536c-2.52-.105-3.852-1.557-3.943-4.217a28.426 28.426 0 0 0-.816-6.41 56.016 56.016 0 0 1-1.032-7.116 1.363 1.363 0 0 0-.47-1.121c-.897-.084-1.237.668-1.59 1.318-1.951 3.635-4.615 2.874-7.512.646a16.676 16.676 0 0 1-2.046-2.295 6.622 6.622 0 0 0-2.109 3.134 10.165 10.165 0 0 1-3.532 4.466c-2.947 2.092-8.215.82-9.964-2.454-1.949-3.667-2.481-7.387-.262-11.29.664-1.167 1.365-2.38 1.934-3.639a5.327 5.327 0 0 1 5.868-3.076c1.886.276 3.67.675 4.931 2.223.777-.246.73-.906.697-1.355-.157-1.969 1.198-2.953 2.494-3.937 1.096-.826 2.04-.21 3.06.716-.366 2.353-.104 4.83-.256 7.303-.185 3.058 1.29 5.306 3.295 7.36 1.376-.43 1.995-2.104 3.474-1.6a3.318 3.318 0 0 0 .336-3.469c-1.327-3.45-1.287-6.974-.874-10.632a5.073 5.073 0 0 0 2.21-2.828 9.381 9.381 0 0 1 4.213-4.555 6.457 6.457 0 0 1 6.874-.092 6.927 6.927 0 0 1 3.396 6.486 29.475 29.475 0 0 1-2.197 9.875 27.044 27.044 0 0 1-2.04 4.901 18.757 18.757 0 0 1-4.679 4.637 6.79 6.79 0 0 0-.01 3.328 55.412 55.412 0 0 1 .922 6.885 5.578 5.578 0 0 0 .531 2.703c1.17 1.723.54 2.88-.903 4.105zm-1.477-21.837a6.77 6.77 0 0 0 1.983-2.106 47.24 47.24 0 0 0 3.542-9.023c.605-2.197.552-4.635-1.814-6.256l-2.861.985c-1.423 1.414-1.101 3.183-1.606 4.679a13.988 13.988 0 0 0-.186 8.124c.272 1.116.175 2.324.942 3.597zm-23.819-5.43a4.134 4.134 0 0 0-2.572 2.026 13.306 13.306 0 0 0-1.997 4.42 8.259 8.259 0 0 0 .936 4.271c.945 2.173 3.17 2.563 4.555.62a53.83 53.83 0 0 0 3.242-5.627 2.463 2.463 0 0 0 .06-1.767c-1.25-1.367-2.348-3.093-4.228-3.942z"/><path data-name="パス 163" d="M238.94 263.39c-6.204 1.548-12.175 3.504-17.309 7.657.675 2.701.36 5.585.65 8.436a60.842 60.842 0 0 0 2.505 11.793c.117.372.304.724.391 1.099.639 2.672-.013 3.323-2.87 2.86a3.764 3.764 0 0 1-1.2-2.19 79.583 79.583 0 0 1-2.469-8.424c-.618-3.101-.803-6.291-1.151-9.445a99.274 99.274 0 0 0-1.835-10.771c-.494-2.228-.112-4.408-.208-6.604a2.006 2.006 0 0 1 2.277-2.093 2.232 2.232 0 0 1 2.302 2.173c-.134 1.805.3 3.565.19 5.346a4.366 4.366 0 0 0 .6 2.75c2.735-3.318 6.889-3.718 10.508-5.164 2.218-.886 4.671-1.11 7.063-2.187-.51-4.938-2.076-9.798-1.849-14.666a6.073 6.073 0 0 1 1.85-1.718c2.672.036 2.955.385 3.032 2.896.05 1.686.515 3.364.502 5.05a21.148 21.148 0 0 0 1.512 7.859 3.468 3.468 0 0 1 1.747 4.134 12.506 12.506 0 0 0 .285 3.694c.5 5.616.535 11.27 1.526 16.85a17.749 17.749 0 0 0 1.942 5.687 1.975 1.975 0 0 1 .069 2.383c-.652.815-1.466.45-2.341.228-1.667-.417-2.184-1.743-2.54-3.067a68.365 68.365 0 0 1-2.18-9.033c-.477-3.83-1.818-7.518-2.141-11.392-.111-1.292.13-2.661-.858-4.14z"/><path data-name="パス 164" d="M46.856 231.285c-1.326.197-1.76-.642-2.215-1.485a16.213 16.213 0 0 1-1.484-6.02c-.5-4.296-.757-8.638-1.376-12.905-.708-4.88-1-9.818-2.039-14.658-.453-2.124-1.417-4.11-1.506-6.247-.203-.12-.328-.264-.447-.255-1.506.118-2.95-.224-3.48-1.7a3.78 3.78 0 0 1 1.537-4.152 19.547 19.547 0 0 1 14.018-4.526 23.4 23.4 0 0 1 8.91 2.388c2.076 1.074 3.188 2.603 2.955 5.059a17.637 17.637 0 0 1-1.007 4.72 70.991 70.991 0 0 1-8.562 16.409c-1.178 1.634-2.421 3.247-3.504 4.913-1.149 1.767-2.353 3.661-1.722 6.21.637 2.589.367 5.4 1.439 7.924.82 1.931-.253 3.076-1.517 4.325zm-.759-22.87a1.427 1.427 0 0 0 .97-.653c3.95-5.746 7.589-11.663 9.783-18.351.912-2.783-.16-4.874-3.037-5.322a22.162 22.162 0 0 0-8.543.072 5.622 5.622 0 0 0-3.216 1.88 11.958 11.958 0 0 1 1.57 5.29c.337 2.832.845 5.632 1.08 8.492s.181 5.853 1.393 8.592z"/><path data-name="パス 165" d="M97.397 233.05c-1.191.384-1.981-.258-2.93-.978-.69-4.52-2.287-8.947-3.106-13.565a6.309 6.309 0 0 1-.087-1.618c.252-2.871-.42-5.695-.442-8.556a2.215 2.215 0 0 0-1.13-1.93 3.268 3.268 0 0 1-1.535-2.17c.22-1.449 1.618-1.912 2.388-3.187-.382-2.08-.57-4.38-.76-6.673-.146-1.769.193-3.537-.267-5.32-.305-1.19-.613-2.397-.852-3.583 1.239-2.752 1.913-3.038 4.804-3.007a15.928 15.928 0 0 1 6.464 1.592 9.648 9.648 0 0 1 4.028 3.426c1.33 2.034.566 4.199-.1 6.253a15.146 15.146 0 0 1-1.44 2.915 42.167 42.167 0 0 1-4.227 6.065 11.505 11.505 0 0 1-1.776 1.453 3.142 3.142 0 0 0-1.282 2.757 89.62 89.62 0 0 0 2.604 20.86 6.878 6.878 0 0 1-.354 5.265zm-1.947-33.816a15.019 15.019 0 0 0 1.85-2.342c1.527-2.272 2.747-4.511 2.836-7.276-1.878-2.457-2.276-2.5-4.525-.752-.193 2.577-.429 5.028-.525 7.485a8.794 8.794 0 0 0 .364 2.885z"/><path data-name="パス 166" d="M328.516 277.502c-2.173-.177-2.761-.928-2.53-2.73.409-3.118.78-6.243 1.042-9.376a23.458 23.458 0 0 1 .893-4.55 23.074 23.074 0 0 0 .69-4.348 4.796 4.796 0 0 1 .217-1.841c.984-1.704.173-2.824-.865-4.14a28.279 28.279 0 0 1-5.172-10.048 16.267 16.267 0 0 1-.155-7.709c2.965-1.86 6.17-1.001 7.704 1.966-.206 1.374-1.67 1.516-2.433 2.457-.045 3.507 1.09 6.721 2.817 10.356a23.51 23.51 0 0 0 .59-3.005c.212-4.343 1.32-8.532 2.095-12.778.521-2.861 2.232-4.4 4.77-4.625a2.077 2.077 0 0 1 2.09 3.213c-2.006 2.074-2.054 4.986-3.32 7.39-.753 1.423-.51 3.317-.977 4.976-1.235 4.38-1.79 8.913-2.742 13.36-.92 4.28-2.156 8.535-2.241 13.005-.044 2.127-.8 4.242-1.227 6.367a4.043 4.043 0 0 1-1.246 2.06z"/><path data-name="パス 167" d="M309.087 282.185a4.821 4.821 0 0 1-2.954-3.055c-1.212-3.573-2.61-7.118-2.719-10.964a4.626 4.626 0 0 0-.39-1.576 8.31 8.31 0 0 1-.667-4.096 4.832 4.832 0 0 0-.071-1.389c-.586-3.804-1.284-7.624-1.605-11.434a32.239 32.239 0 0 1-.01-8.703 8.089 8.089 0 0 1 2.337-1.258c1.438.001 2.165 1.127 3.083 1.93a3.71 3.71 0 0 0 .95-.085 6.841 6.841 0 0 1 4.29-.062 7.121 7.121 0 0 1 5.319 7.713 21.138 21.138 0 0 1-3.469 9.284 6.455 6.455 0 0 1-6.562 2.923 78.326 78.326 0 0 1 1.65 9.725 12.278 12.278 0 0 0 1.577 4.355 18.781 18.781 0 0 1 1.116 2.305c.958 2.358.681 3.005-1.875 4.387zm-2.599-25.736a1.322 1.322 0 0 0 2.142-.05 14.22 14.22 0 0 0 3.991-6.68 3.748 3.748 0 0 0-1.226-3.33c-.958-.536-2.005-.285-3.076.86a7.703 7.703 0 0 0-2.18 6.352c.104.926.225 1.85.35 2.848z"/><path data-name="パス 168" d="M358.641 243.19c2.039-2.372 4.348-3.834 7.225-3.907.993-3.385.81-6.662.963-9.883a29.058 29.058 0 0 1 1.991-9.985 3.29 3.29 0 0 0 .194-.902 1.683 1.683 0 0 0-.08-.47 3.512 3.512 0 0 0-2.452-1.12c-1.187-.231-1.506-.781-1.412-2.005.125-1.784 2.328-3.313 3.681-2.327 1.718 1.246 3.79 2.206 4.665 4.406a2.617 2.617 0 0 1 .176 1.784 67.163 67.163 0 0 0-2.332 14.9c-.08 1.926-.27 3.846-.428 5.913 1.8.316 3.423-.624 5.15-.774.945.362 1.068 1.24 1.337 2.111-1.677 2.468-4.855 2.233-7.088 3.932a33.069 33.069 0 0 1-2.572 7.066c-.898 1.625-1.94 2.045-3.38 1.016a18.398 18.398 0 0 1-4.991-5.049c-.99-1.548-.757-3.086-.647-4.707zm6.873 1.659c-.838.114-1.557.309-1.718 1.225a1.193 1.193 0 0 0 1.266 1.017 2.92 2.92 0 0 0 .452-2.242z"/><path data-name="パス 169" d="M226.655 227.925c.518.193.601.687.724 1.118.655 2.32-2.225 7.407-4.93 7.905a5.728 5.728 0 0 1-5.79-2.017 18.39 18.39 0 0 1-2.953-5.7 9.982 9.982 0 0 1-.111-4.36 41.619 41.619 0 0 0 .465-4.84 9.004 9.004 0 0 1 1.025-3.539c.458-1.12.953-2.224 1.456-3.391a3.268 3.268 0 0 0-2.131 1.048 74.319 74.319 0 0 0-6.123 6.353 3.814 3.814 0 0 0-.512 1.276 2.343 2.343 0 0 1-3.204 1.462c-1.232-.47-1.613-1.585-1.071-3.07a10.284 10.284 0 0 1 2.993-4.366c4.298-3.723 8.583-7.442 13.553-10.27a3.646 3.646 0 0 1 2.167-.704c1.733.134 2.287.898 2.056 2.612a18.768 18.768 0 0 1-2.572 6.439 34.042 34.042 0 0 0-3.516 9.822 8.586 8.586 0 0 0 1.888 7.848c1.171 1.234 1.99 1.275 3.124.03.837-.916 1.541-1.951 2.358-2.889.28-.335.536-.798 1.104-.767z"/><path data-name="パス 170" d="M187.618 195.816a9.361 9.361 0 0 1 1.361-.707c2.216-.726 3.9.64 3.626 2.98-.145 1.217-.553 2.408-.656 3.623-.329 3.845.116 7.73-.223 11.542-.246 2.733.24 5.357.235 8.03-.006 3.924.322 7.853.671 11.775.263 2.984.627 5.971.674 8.986a13.26 13.26 0 0 0 2.146 7.701 4.475 4.475 0 0 1 .956 2.32c-.335 1.11-1.293 1.267-2.2 1.52a3.445 3.445 0 0 1-2.605-2.068 19.392 19.392 0 0 1-2.408-8.854c-.025-2.225-.384-4.447-.56-6.67-.262-3.31-.501-6.637-.933-9.911-.526-3.94-.182-7.884-.696-11.788a19.73 19.73 0 0 1-.01-2.026 110.515 110.515 0 0 1 .622-16.453z"/><path data-name="パス 171" d="M179.926 230.727c1.986-.097 3.34 1.26 4.366 3.322a10.695 10.695 0 0 1 .445 8.743c-.623 1.732-1.087 3.534-1.78 5.228a9.086 9.086 0 0 1-6.166 5.527c-1.912.568-3.51-.28-5.213-.618a6.585 6.585 0 0 1-5.354-5.163c-.601-2.308-1.148-4.494-.453-7.013a47.25 47.25 0 0 1 1.887-5.668 6.319 6.319 0 0 1 4.7-3.745 26.446 26.446 0 0 1 7.568-.613zm-8.193 6.508c-.32.78-.738 1.614-1.006 2.494-.672 2.193-1.179 4.237-.065 6.644a4.702 4.702 0 0 0 7.997.974 16.815 16.815 0 0 0 2.877-9.332c.083-2.191-1.742-3.298-3.846-2.606-.734.239-1.423.74-2.224.607a4.914 4.914 0 0 0-3.737 1.218z"/><path data-name="パス 172" d="M123.046 194.104c1.932-.843 2.739-3.195 5.049-2.81a6.26 6.26 0 0 1-2.86 6.662 5.95 5.95 0 0 1-7.108-.646c-.824-.703-1.52-1.553-2.41-2.198a2.069 2.069 0 0 1-.763-1.15 19.996 19.996 0 0 1-.433-10.542 25.082 25.082 0 0 1 3.02-7.812c-1.303-.175-2.264.517-3.301.58-1.534-.137-1.815-1.545-2.65-2.443l.838-2.228c2.285-1.122 4.553-2.308 6.887-3.339.931-.411 1.79-.92 2.672-1.403 1.731-.938 1.954-.922 3.812.313.416 1.215-1.043 2.547.175 3.577-2.858 4.064-5.607 8.072-6.635 12.81-.573 2.633-1.315 5.53.209 8.205.78 1.369 1.593 2.768 3.498 2.424z"/><path data-name="パス 173" d="M80.197 207.572c-.46 2.876-.632 5.831-2.488 8.304-1.308 1.751-2.636 3.54-5.114 3.446a9.928 9.928 0 0 1-3.84-.692c-3.985-1.937-6.707-5-7.406-9.525a4.108 4.108 0 0 1 .527-2.933 32.125 32.125 0 0 1 2.415-3.699c2.103-2.392 4.532-4.424 7.79-5.043a6.303 6.303 0 0 1 7.182 3.757 11.652 11.652 0 0 1 .934 6.385zm-6.142-6.008a12.938 12.938 0 0 0-7.442 6.076 2.318 2.318 0 0 0-.224 2.592 16.395 16.395 0 0 0 2.306 3.198c2.129 2.064 4.723 1.774 6.22-.75a7.714 7.714 0 0 0 .721-1.708 20.061 20.061 0 0 0 .434-6.6 2.785 2.785 0 0 0-2.014-2.812z"/><path data-name="パス 174" d="M353.326 249.317c-2.777 1.46-4.343.885-4.564-1.924a29.496 29.496 0 0 1 .339-9.042 18.152 18.152 0 0 0 .443-3.85c-.946-.1-2.003.049-2.655-.932s-.38-1.92-.151-2.947c1.12-1.11 2.626-1.596 4.052-2.381.368-1.215.928-2.411 1.38-3.632.796-2.138 2.501-3.064 4.391-3.843a9.918 9.918 0 0 0 1.715-.69c1.76-1.1 1.96-1.023 3.316.834a2.808 2.808 0 0 1-1.42 1.942 7.341 7.341 0 0 0-3.492 4.04 42.187 42.187 0 0 1 5.663-2.196 1.564 1.564 0 0 1 1.377 1.54c-1.822 3.098-5.403 3.889-8.048 5.817-1.889 5.688-3.09 11.395-2.346 17.264z"/><path data-name="パス 175" d="M221.307 196.867c3.262-2.664 3.476-2.11 5.643.49 1.43 1.704 2.919 3.38 3.586 5.595.244.807.393 1.546-.37 2.08a1.883 1.883 0 0 1-2.18-.135 9.513 9.513 0 0 1-.862-.77c-1.668-1.352-2.921-3.144-4.853-4.242-.972-.553-1.201-1.735-.964-3.018z"/><path data-name="パス 176" d="M126.034 154.173c1.574 3 4.603 5.037 6.743 7.839-1.33 1.652-2.427 1.83-4.155.61-1.704-1.199-3.356-2.474-5.01-3.737-1.502-1.148-1.971-2.336-1.47-3.58.478-1.186 1.385-1.485 3.892-1.132z"/><path data-name="パス 177" d="M134.355 145.33c1.09-.012 2.095-.154 2.893.561a15.992 15.992 0 0 0 3.34 7.456 1.918 1.918 0 0 1-.94 1.558 8.042 8.042 0 0 1-6.348-7.28c-.056-.986-.108-.985 1.055-2.295z"/><path data-name="パス 178" d="M241.385 190.703c-1.337.353-2.294-.313-3.22-.77-1.507-.757-2.632-2.11-4.126-2.944-.385-.222-.556-.904-.749-1.402-.633-1.622-.22-2.8 1.11-3.26a2.558 2.558 0 0 1 3.479 2.008 8.99 8.99 0 0 1 .112.987c1.51.721 2.172 2.295 3.348 3.382.586.543.431 1.25.046 1.999z"/><path data-name="パス 179" d="M439.457 224.342a20.716 20.716 0 0 1-2.87-3.171c-1.274-1.73-1.307-2.058-.004-4.092.72-.15 1.463-.353 2.22-.435a2 2 0 0 1 2.364 1.414c.354 1.805.764 3.589 1.197 5.378a.9.9 0 0 1-.426.894c-.725.346-1.564.034-2.481.012z"/></g></svg>