<svg xmlns="http://www.w3.org/2000/svg" viewBox="0 0 524.67 225.56"><defs><style>.cls-1,.cls-2{fill:none;}.cls-1,.cls-2,.cls-3,.cls-4{stroke:#fff;stroke-miterlimit:10;}.cls-1{stroke-width:5px;}.cls-2,.cls-3,.cls-4{stroke-width:3px;}.cls-3{fill:#574865;}.cls-4,.cls-5{fill:#fff;}.cls-5{font-size:147.57px;font-family:YuGothicUI-Semilight, Yu Gothic UI;font-weight:300;}</style></defs><g id="圖層_2" data-name="圖層 2"><g id="圖層_1-2" data-name="圖層 1"><path class="cls-1" d="M38.34,184.22A101.11,101.11,0,0,1,7.94,86.06"/><path class="cls-2" d="M1.45,72.59A101.08,101.08,0,0,1,75.62,1.46"/><path class="cls-2" d="M179,169.15a101.72,101.72,0,0,1-23.74,19.62"/><path class="cls-2" d="M19.72,82.21A100.25,100.25,0,0,1,38.31,46.09"/><path class="cls-1" d="M201.46,158.18a101,101,0,0,1-64.53,51.33"/><path class="cls-1" d="M113,3.82a100.55,100.55,0,0,1,56.72,19.46"/><circle class="cls-2" cx="109.4" cy="108.63" r="101"/><path class="cls-2" d="M164.71,217.05a101.06,101.06,0,0,1-138-94"/><path class="cls-2" d="M127.67,22.06A101.06,101.06,0,0,1,227.85,136"/><line class="cls-3" x1="67.07" y1="160.57" x2="74.04" y2="143.08"/><line class="cls-3" x1="67.07" y1="161.53" x2="64.19" y2="136.52"/><line class="cls-3" x1="81.5" y1="150.95" x2="67.07" y2="161.53"/><line class="cls-3" x1="23.79" y1="113.44" x2="65.15" y2="137.49"/><line class="cls-3" x1="182.25" y1="62.97" x2="23.79" y2="113.44"/><line class="cls-3" x1="96.89" y1="118.25" x2="23.79" y2="113.44"/><line class="cls-3" x1="119.01" y1="186.54" x2="101.7" y2="122.1"/><line class="cls-3" x1="119.98" y1="189.43" x2="180.58" y2="62.46"/><line class="cls-3" x1="74.77" y1="144.22" x2="119.01" y2="188.47"/><line class="cls-3" x1="64.19" y1="139.41" x2="177.69" y2="64.38"/><line class="cls-3" x1="73.81" y1="143.26" x2="180.58" y2="62.46"/><polygon class="cls-4" points="72.84 142.29 67.07 159.61 65.15 139.41 171.92 67.27 72.84 142.29"/><text class="cls-5" transform="translate(248.02 168.25) scale(0.94 1)">旅歷</text></g></g></svg>